<?xml version="1.0" encoding="UTF-8"?>
<svg xmlns="http://www.w3.org/2000/svg" xmlns:xlink="http://www.w3.org/1999/xlink" width="30pt" height="30pt" viewBox="0 0 30 30" version="1.1">
<g id="surface1">
<path style=" stroke:none;fill-rule:nonzero;fill:#FFFFFF;fill-opacity:1;" d="M 22.699219 2.960938 C 20.515625 2.960938 18.75 4.726563 18.75 6.90625 C 18.75 9.089844 20.515625 10.855469 22.699219 10.855469 C 24.878906 10.855469 26.644531 9.089844 26.644531 6.90625 C 26.644531 4.726563 24.878906 2.960938 22.699219 2.960938 Z M 5.921875 3.949219 C 4.832031 3.949219 3.949219 4.832031 3.949219 5.921875 L 3.949219 23.683594 C 3.949219 24.773438 4.832031 25.65625 5.921875 25.65625 L 23.683594 25.65625 C 24.773438 25.65625 25.65625 24.773438 25.65625 23.683594 L 25.65625 12.03125 C 24.785156 12.535156 23.777344 12.828125 22.699219 12.828125 C 19.429688 12.828125 16.777344 10.175781 16.777344 6.90625 C 16.777344 5.828125 17.070313 4.820313 17.574219 3.949219 Z "/>
</g>
</svg>
