<?xml version="1.0" encoding="UTF-8"?>
<svg xmlns="http://www.w3.org/2000/svg" xmlns:xlink="http://www.w3.org/1999/xlink" width="30pt" height="30pt" viewBox="0 0 30 30" version="1.1">
<g id="surface1">
<path style=" stroke:none;fill-rule:nonzero;fill:#FFFFFF;fill-opacity:1;" d="M 17.761719 18.75 L 17.761719 16.777344 C 18.207031 16.554688 19.480469 15.046875 19.609375 13.863281 C 19.960938 13.835938 20.507813 13.515625 20.667969 12.25 C 20.757813 11.570313 20.410156 11.1875 20.203125 11.066406 C 20.203125 11.066406 20.722656 10.078125 20.722656 8.882813 C 20.722656 6.488281 19.78125 4.441406 17.761719 4.441406 C 17.761719 4.441406 17.0625 2.960938 14.800781 2.960938 C 10.617188 2.960938 8.882813 5.648438 8.882813 8.882813 C 8.882813 9.972656 9.402344 11.066406 9.402344 11.066406 C 9.195313 11.1875 8.847656 11.574219 8.9375 12.25 C 9.097656 13.515625 9.644531 13.835938 9.996094 13.863281 C 10.125 15.046875 11.398438 16.554688 11.84375 16.777344 L 11.84375 18.75 C 10.855469 21.710938 2.960938 19.738281 2.960938 26.644531 L 26.644531 26.644531 C 26.644531 19.738281 18.75 21.710938 17.761719 18.75 Z "/>
</g>
</svg>
