<?xml version="1.0" encoding="UTF-8"?>
<svg xmlns="http://www.w3.org/2000/svg" xmlns:xlink="http://www.w3.org/1999/xlink" width="24pt" height="24pt" viewBox="0 0 24 24" version="1.1">
<g id="surface1">
<path style=" stroke:none;fill-rule:nonzero;fill:#FFFFFF;fill-opacity:1;" d="M 12 2 C 11.171875 2 10.5 2.671875 10.5 3.5 L 10.5 4.195313 C 7.914063 4.863281 6 7.203125 6 10 L 6 16 L 4 18 L 4 19 L 20 19 L 20 18 L 18 16 L 18 10 C 18 7.203125 16.085938 4.863281 13.5 4.195313 L 13.5 3.5 C 13.5 2.671875 12.828125 2 12 2 Z M 10 20 C 10 21.105469 10.894531 22 12 22 C 13.105469 22 14 21.105469 14 20 Z "/>
</g>
</svg>
