<?xml version="1.0" encoding="UTF-8"?>
<svg xmlns="http://www.w3.org/2000/svg" xmlns:xlink="http://www.w3.org/1999/xlink" width="50pt" height="50pt" viewBox="0 0 50 50" version="1.1">
<g id="surface1">
<path style=" stroke:none;fill-rule:nonzero;fill:#FFFFFF;fill-opacity:1;" d="M 11.90625 3.96875 C 9.875 3.96875 8.132813 5.195313 7.363281 6.945313 L 37.699219 6.945313 C 41.527344 6.945313 44.644531 10.058594 44.644531 13.890625 L 44.644531 34.304688 C 46.390625 33.53125 47.617188 31.792969 47.617188 29.761719 L 47.617188 8.929688 C 47.617188 6.191406 45.394531 3.96875 42.660156 3.96875 Z M 6.945313 8.929688 C 4.207031 8.929688 1.984375 11.152344 1.984375 13.890625 L 1.984375 34.722656 C 1.984375 37.457031 4.207031 39.683594 6.945313 39.683594 L 10.898438 39.683594 C 10.808594 42.183594 10.300781 43.65625 8.417969 44.78125 C 8.035156 45.015625 7.851563 45.472656 7.972656 45.898438 C 8.089844 46.328125 8.484375 46.628906 8.929688 46.628906 C 11.839844 46.628906 16.992188 45.703125 19.527344 39.683594 L 37.699219 39.683594 C 40.433594 39.683594 42.660156 37.457031 42.660156 34.722656 L 42.660156 13.890625 C 42.660156 11.152344 40.433594 8.929688 37.699219 8.929688 Z "/>
</g>
</svg>
