<?xml version="1.0" encoding="UTF-8"?>
<svg xmlns="http://www.w3.org/2000/svg" xmlns:xlink="http://www.w3.org/1999/xlink" width="26pt" height="26pt" viewBox="0 0 26 26" version="1.1">
<g id="surface1">
<path style=" stroke:none;fill-rule:nonzero;fill:#FFFFFF;fill-opacity:1;" d="M 19.695313 2 C 19.15625 2 18.710938 2.441406 18.710938 2.984375 L 18.710938 7.695313 L 13.511719 2.492188 C 13.125 2.109375 12.480469 2.109375 12.09375 2.492188 L 0.554688 14.066406 C 0.167969 14.449219 0.167969 15.066406 0.554688 15.449219 C 0.9375 15.835938 1.554688 15.835938 1.9375 15.449219 L 12.804688 4.585938 L 23.699219 15.480469 C 23.890625 15.671875 24.152344 15.789063 24.40625 15.789063 C 24.660156 15.789063 24.890625 15.671875 25.082031 15.480469 C 25.46875 15.097656 25.46875 14.480469 25.082031 14.09375 L 21.667969 10.679688 L 21.667969 2.984375 C 21.667969 2.441406 21.222656 2 20.683594 2 Z M 12.804688 6.402344 L 1.96875 17.234375 L 1.96875 22.652344 C 1.96875 24.28125 3.292969 25.605469 4.925781 25.605469 L 20.683594 25.605469 C 22.3125 25.605469 23.636719 24.28125 23.636719 22.652344 L 23.636719 17.234375 Z M 10.832031 15.757813 L 14.773438 15.757813 C 15.316406 15.757813 15.757813 16.199219 15.757813 16.742188 L 15.757813 22.652344 C 15.757813 23.195313 15.316406 23.636719 14.773438 23.636719 L 10.832031 23.636719 C 10.289063 23.636719 9.847656 23.195313 9.847656 22.652344 L 9.847656 16.742188 C 9.847656 16.199219 10.289063 15.757813 10.832031 15.757813 Z "/>
</g>
</svg>
